<svg xmlns="http://www.w3.org/2000/svg" width="142.077" height="142.121" viewBox="0 0 142.077 142.121"><defs><style>.a{fill:#24282a;}</style></defs><g transform="translate(0)"><path class="a" d="M140.718,66.224a7.55,7.55,0,0,0-13.05,1.461l-2.081,4.855c-1.526-24.454-15.649-36.716-21.982-41.014a17.762,17.762,0,1,0-24.678.033,46.3,46.3,0,0,0-7.737,6.623,46.2,46.2,0,0,0-7.82-6.678,17.764,17.764,0,1,0-24.672.081C32.3,35.955,18.2,48.306,16.787,72.856l-2.215-5.17a7.55,7.55,0,1,0-13.813,6.1L10.039,94.2a25.184,25.184,0,0,0,5.142,7.421l14.6,14.6a4.706,4.706,0,0,0-1.285,3.222v18.945a4.741,4.741,0,0,0,4.736,4.736h26.05a4.741,4.741,0,0,0,4.736-4.736V121.808H78.224v16.577a4.741,4.741,0,0,0,4.736,4.736h26.05a4.741,4.741,0,0,0,4.736-4.736V119.439a4.706,4.706,0,0,0-1.285-3.222l14.6-14.6A25.181,25.181,0,0,0,132.2,94.2l9.281-20.417A7.55,7.55,0,0,0,140.718,66.224ZM78.223,18.794A13.025,13.025,0,1,1,91.248,31.819,13.025,13.025,0,0,1,78.223,18.794Zm4.847,15.75a17.65,17.65,0,0,0,16.45-.046c4.516,2.595,22.262,14.712,21.444,44.253a10.959,10.959,0,0,0-9.124.171A72.233,72.233,0,0,0,106.449,52.2a2.368,2.368,0,1,0-4.353,1.866c.067.156,6.475,15.362,4.693,28.53a39.85,39.85,0,0,1-10.747,6.433,14.916,14.916,0,0,0-1.374.583c-.91-13.681-6.621-21.129-10.108-24.447a16.53,16.53,0,0,0-8.248-25.395A39.42,39.42,0,0,1,83.071,34.544ZM71.119,43.659A11.841,11.841,0,1,1,59.278,55.5,11.841,11.841,0,0,1,71.119,43.659ZM37.965,18.794A13.025,13.025,0,1,1,50.99,31.819,13.025,13.025,0,0,1,37.965,18.794ZM42.8,34.539a17.648,17.648,0,0,0,16.446-.033,39.394,39.394,0,0,1,6.781,5.225,16.534,16.534,0,0,0-8.35,25.432c-3.488,3.318-9.2,10.766-10.109,24.447-.455-.2-.9-.426-1.375-.583a39.859,39.859,0,0,1-10.745-6.433c-1.776-13.138,4.628-28.375,4.694-28.531A2.368,2.368,0,0,0,35.789,52.2,72.236,72.236,0,0,0,30.4,78.922a10.892,10.892,0,0,0-8.973-.186C20.617,49.353,38.178,37.214,42.8,34.539ZM18.53,98.273a20.51,20.51,0,0,1-4.18-6.031L5.069,71.825a2.77,2.77,0,0,1,.2-2.69h0a2.766,2.766,0,0,1,2.366-1.29,2.81,2.81,0,0,1,2.587,1.707l5.3,12.356a28.024,28.024,0,0,0,5.972,8.821L32.3,101.547A2.368,2.368,0,0,0,35.653,98.2L24.835,87.38a23.43,23.43,0,0,1-2.919-3.555,6.147,6.147,0,0,1,7.67.126c.68.572,1.346,1.115,2,1.64a2.312,2.312,0,0,0,.327.261A45.123,45.123,0,0,0,44.7,93.52a12.425,12.425,0,0,1,5.694,4.222,20.085,20.085,0,0,1,4.152,12.553V114.7H34.96Zm14.7,40.112V119.439h26.05l0,18.945Zm45.653-21.313H63.356a4.72,4.72,0,0,0-4.078-2.368V110.3c0-.75-.033-1.495-.094-2.233a2.26,2.26,0,0,0,.094-.464c0-.142.075-14.284,6.565-22.177a2.368,2.368,0,1,0-3.658-3.009A34.785,34.785,0,0,0,55.742,97.2a22.148,22.148,0,0,0-1.654-2.416,20.7,20.7,0,0,0-1.893-2.058c.179-14.074,5.84-21.336,8.774-24.15a16.469,16.469,0,0,0,20.3,0c2.934,2.814,8.595,10.076,8.774,24.15a20.7,20.7,0,0,0-1.893,2.058A22.081,22.081,0,0,0,86.5,97.2a34.785,34.785,0,0,0-6.444-14.787,2.368,2.368,0,0,0-3.658,3.009c6.47,7.868,6.566,22.037,6.566,22.179a2.267,2.267,0,0,0,.094.461c-.061.738-.094,1.483-.094,2.233V114.7A4.72,4.72,0,0,0,78.882,117.071Zm30.127,21.313H82.96V119.439h26.05Zm28.159-66.56-9.281,20.417a20.505,20.505,0,0,1-4.18,6.031l-16.43,16.43H87.7V110.3a20.084,20.084,0,0,1,4.152-12.553,12.428,12.428,0,0,1,5.693-4.222,45.105,45.105,0,0,0,12.782-7.669,2.324,2.324,0,0,0,.324-.258c.658-.526,1.324-1.069,2-1.642a6.157,6.157,0,0,1,7.685-.148,23.423,23.423,0,0,1-2.934,3.576L106.584,98.2a2.368,2.368,0,0,0,3.349,3.349l10.818-10.818a28.023,28.023,0,0,0,5.972-8.821l5.3-12.357a2.814,2.814,0,1,1,5.148,2.274Z" transform="translate(-0.081 -1)"/><path class="a" d="M184,453.386h-2.368a2.368,2.368,0,0,0,0,4.736H184a2.368,2.368,0,0,0,0-4.736Z" transform="translate(-129.536 -327.842)"/><path class="a" d="M309.629,458.123H312a2.368,2.368,0,1,0,0-4.736h-2.368a2.368,2.368,0,1,0,0,4.736Z" transform="translate(-222.014 -327.843)"/></g></svg>