<svg xmlns="http://www.w3.org/2000/svg" width="45px" height="45px" viewBox="0 0 45.446 45.45"><defs><style>.a{fill:#f8f8f8;}</style></defs><g transform="translate(-0.02)"><g transform="translate(0.02)"><g transform="translate(0)"><path class="a" d="M132.45,8.928a4.464,4.464,0,1,0-4.464-4.464A4.464,4.464,0,0,0,132.45,8.928Z" transform="translate(-116.627)"/><path class="a" d="M287.878,8.928a4.464,4.464,0,1,0-4.464-4.464A4.464,4.464,0,0,0,287.878,8.928Z" transform="translate(-258.257)"/><path class="a" d="M67.137,126.129a24.848,24.848,0,0,1,1.85-9.155.811.811,0,0,1,1.493.633c-.024.057-2.216,5.275-1.607,9.78a13.72,13.72,0,0,0,3.677,2.208c.162.049.317.13.479.195.308-4.683,2.264-7.239,3.457-8.376a5.671,5.671,0,0,1,2.865-8.717,14.265,14.265,0,0,0-2.321-1.794,6.047,6.047,0,0,1-5.641.016c-1.583.917-7.6,5.073-7.321,15.145A3.712,3.712,0,0,1,67.137,126.129Z" transform="translate(-58.375 -101.058)"/><path class="a" d="M279.636,116.344a5.666,5.666,0,0,1-.793,5.069c1.193,1.136,3.149,3.693,3.457,8.376.162-.065.317-.146.471-.195a13.615,13.615,0,0,0,3.685-2.208c.617-4.512-1.583-9.723-1.607-9.78a.811.811,0,1,1,1.493-.633,24.848,24.848,0,0,1,1.85,9.155,3.751,3.751,0,0,1,3.125-.057c.276-10.129-5.8-14.276-7.353-15.169a6.031,6.031,0,0,1-5.632.016,13.276,13.276,0,0,0-2.321,1.794A5.666,5.666,0,0,1,279.636,116.344Z" transform="translate(-251.512 -101.058)"/><path class="a" d="M210.272,150.344a4.058,4.058,0,1,0,4.058-4.058A4.058,4.058,0,0,0,210.272,150.344Z" transform="translate(-191.608 -133.3)"/><path class="a" d="M17.06,255.7v-1.51a6.869,6.869,0,0,0-1.42-4.3,4.2,4.2,0,0,0-1.956-1.445,15.617,15.617,0,0,1-4.375-2.63,1.389,1.389,0,0,1-.114-.089c-.227-.178-.454-.365-.69-.568a2.111,2.111,0,0,0-2.63-.041,7.568,7.568,0,0,0,1.006,1.217l3.7,3.709a.808.808,0,0,1,0,1.144.794.794,0,0,1-1.144,0l-3.709-3.7a9.726,9.726,0,0,1-2.045-3.027l-1.818-4.237A.963.963,0,1,0,.106,241l3.181,7a6.958,6.958,0,0,0,1.428,2.061l5.632,5.632H17.06Z" transform="translate(-0.02 -218.363)"/><path class="a" d="M336.864,240.08a.945.945,0,0,0-.812-.446.961.961,0,0,0-.885.584l-1.818,4.237a9.727,9.727,0,0,1-2.045,3.027l-3.709,3.7a.794.794,0,0,1-1.144,0,.808.808,0,0,1,0-1.144l3.7-3.709a7.624,7.624,0,0,0,1.006-1.226,2.112,2.112,0,0,0-2.63.049c-.235.2-.463.39-.69.568a1.405,1.405,0,0,1-.114.089,15.819,15.819,0,0,1-4.375,2.63,4.2,4.2,0,0,0-1.956,1.445,6.869,6.869,0,0,0-1.42,4.3v1.51h6.712l5.632-5.632A6.956,6.956,0,0,0,333.747,248l3.181-7A.946.946,0,0,0,336.864,240.08Z" transform="translate(-291.572 -218.362)"/><path class="a" d="M301.7,445.35h8.928v-6.493H301.7Zm1.623-4.058h.812a.812.812,0,0,1,0,1.623h-.812a.812.812,0,1,1,0-1.623Z" transform="translate(-274.92 -399.9)"/><path class="a" d="M193.476,256.769c0-.26.008-.511.033-.763a1.159,1.159,0,0,1-.033-.162c0-.049-.032-4.9-2.248-7.6a.813.813,0,0,1,1.25-1.039,11.972,11.972,0,0,1,2.208,5.073,8.753,8.753,0,0,1,.568-.828,6.843,6.843,0,0,1,.649-.706c-.057-4.821-2-7.313-3-8.278a5.647,5.647,0,0,1-6.964,0c-1.006.966-2.946,3.457-3,8.278a6.842,6.842,0,0,1,.649.706,8.751,8.751,0,0,1,.568.828,11.972,11.972,0,0,1,2.208-5.073.813.813,0,1,1,1.25,1.039c-2.224,2.7-2.248,7.548-2.248,7.6a1.15,1.15,0,0,1-.032.162c.024.252.032.5.032.763v1.51a1.614,1.614,0,0,1,1.4.812h5.324a1.613,1.613,0,0,1,1.4-.812v-1.51Z" transform="translate(-166.696 -220.945)"/><path class="a" d="M109.7,445.35h8.928v-6.493H109.7Zm6.493-4.058H117a.812.812,0,1,1,0,1.623h-.812a.812.812,0,0,1,0-1.623Z" transform="translate(-99.964 -399.9)"/></g></g></g></svg>
