<svg xmlns="http://www.w3.org/2000/svg" width="120.724" height="120.724" viewBox="0 0 120.724 120.724"><defs><style>.a{fill:#24282a;}</style></defs><path class="a" d="M60.362,0a60.362,60.362,0,1,0,60.362,60.362A60.431,60.431,0,0,0,60.362,0Zm0,116.7A56.338,56.338,0,1,1,116.7,60.362,56.4,56.4,0,0,1,60.362,116.7Z" transform="translate(0 0)"/><g transform="translate(96.58 16.043)"><path class="a" d="M429.33,130.5c-9.247-5.785-15.706-23.175-15.706-42.29A81.569,81.569,0,0,1,415.51,70.49a2.013,2.013,0,0,0-3.93-.875,85.712,85.712,0,0,0-1.98,18.6c0,20.753,7.073,39.119,17.6,45.7a2.011,2.011,0,1,0,2.133-3.41Z" transform="translate(-409.6 -68.041)"/></g><g transform="translate(0 2.165)"><path class="a" d="M45.376,9.327a2.023,2.023,0,0,0-1.294-.071A60.362,60.362,0,1,0,88.851,120.6a2.018,2.018,0,0,0,1.022-1.378l.646-3.237.042-.264a120.9,120.9,0,0,0,1.994-19.167C92.555,55.737,73.6,20.683,45.376,9.327ZM86.588,115.087l-.473,2.406A56.341,56.341,0,1,1,44.507,13.318c26.36,11.022,44.024,44.354,44.024,83.236A117.729,117.729,0,0,1,86.588,115.087Z" transform="translate(0 -9.182)"/></g><g transform="translate(32.192 98.592)"><path class="a" d="M151.26,424.279a52.262,52.262,0,0,1-11.624-5.819,2.012,2.012,0,1,0-2.2,3.372,56.168,56.168,0,0,0,12.521,6.254,2.038,2.038,0,0,0,.65.109,2.011,2.011,0,0,0,.648-3.916Z" transform="translate(-136.526 -418.135)"/></g><g transform="translate(16.096 82.492)"><path class="a" d="M77.882,358.656c-.471-.585-.986-1.2-1.519-1.835a34.575,34.575,0,0,1-4.29-5.861,2.012,2.012,0,1,0-3.593,1.811,37.294,37.294,0,0,0,4.8,6.64c.513.61,1.01,1.2,1.461,1.763a2.012,2.012,0,1,0,3.139-2.517Z" transform="translate(-68.264 -349.852)"/></g><g transform="translate(3.602 43.078)"><path class="a" d="M128.374,182.706c-58.9-.469-93.644,19.274-112.425,35.988a2.012,2.012,0,1,0,2.674,3.006c18.252-16.244,52.129-35.447,109.712-34.97h.02a2.012,2.012,0,0,0,.018-4.024Z" transform="translate(-15.276 -182.698)"/></g><g transform="translate(14.372 20.064)"><path class="a" d="M64.892,85.149c-.614,0-1.223-.026-1.833-.056a2.012,2.012,0,0,0-.191,4.02c.672.032,1.346.06,2.024.06,26.628,0,48.29,25.724,48.29,57.344,0,14.08-3.418,26.543-9.885,36.04a2.013,2.013,0,0,0,3.328,2.265c6.922-10.169,10.582-23.414,10.582-38.306C117.206,112.678,93.737,85.149,64.892,85.149Z" transform="translate(-60.952 -85.092)"/></g></svg>