<svg xmlns="http://www.w3.org/2000/svg" width="158.066" height="115.695" viewBox="0 0 158.066 115.695"><defs><style>.a{fill:#24282a;}</style></defs><path class="a" d="M155.362,111.843H141.989c5.559-12.621,4.958-22.838,2.855-29.75C141.238,69.773,129.067,56.4,111.037,56.4a42.268,42.268,0,0,0-14.575,2.7,75.594,75.594,0,0,0-16.828,8.414A72.139,72.139,0,0,0,62.806,59.1a42.915,42.915,0,0,0-14.575-2.7c-18.03,0-30.2,13.373-33.807,25.693-2.1,7.362-2.855,18.481,4.207,32.455H2.4a2.4,2.4,0,1,0,0,4.808H21.486a31.718,31.718,0,0,0,2.7,4.057c15.626,22.538,49.584,47.029,55.744,48.532v.15a.465.465,0,0,0,.3-.15h.451v-.15c5.259-2.554,37.864-23.59,54.993-48.532a55.281,55.281,0,0,0,4.207-6.761h15.777a2.373,2.373,0,0,0,2.4-2.4A2.524,2.524,0,0,0,155.362,111.843Zm-24.041,8.865C115.394,144,86.1,162.779,79.784,166.836c-6.461-4.057-35.61-22.989-51.687-46.128l-.9-1.352H49.283A2.479,2.479,0,0,0,51.537,118L61.6,98.17,77.38,138.588a2.46,2.46,0,0,0,2.254,1.5h.15a2.393,2.393,0,0,0,2.254-1.8l13.823-47.33,7.362,23.89a2.449,2.449,0,0,0,1.953,1.653,2.6,2.6,0,0,0,2.4-1.052l5.86-8.564L118.4,115.3a2.4,2.4,0,0,0,2.1,1.2h13.523C133.124,118,132.223,119.356,131.321,120.708Zm5.409-8.865H122.006l-6.16-10.518a2.4,2.4,0,0,0-2.1-1.2,2.274,2.274,0,0,0-2.1,1.052l-5.109,7.513-8.264-26.9a2.788,2.788,0,0,0-2.4-1.8,2.572,2.572,0,0,0-2.4,1.8L79.484,130.024,64.308,91.259a2.26,2.26,0,0,0-2.1-1.5,2.33,2.33,0,0,0-2.254,1.352L48.081,114.4H24.191c-6.01-10.968-7.663-21.486-4.958-30.952,3.155-10.668,13.523-22.087,29.149-22.087a39.97,39.97,0,0,1,12.922,2.4,73.045,73.045,0,0,1,16.979,8.715,2.285,2.285,0,0,0,3.005,0s5.86-4.658,16.979-8.715a36.324,36.324,0,0,1,12.922-2.4c15.476,0,25.994,11.419,29.149,22.087C142.891,92.16,141.538,101.776,136.73,111.843Z" transform="translate(0 -56.4)"/></svg>