<svg xmlns="http://www.w3.org/2000/svg" width="158.664" height="120.724" viewBox="0 0 158.664 120.724"><defs><style>.a{fill:#24282a;}</style></defs><path class="a" d="M153.393,74.691l-63.247-30.9c-5.452-2.726-14.721-2.726-20.174,0l-64.7,30.9C.727,76.872,0,79.962,0,81.6S.727,86.141,5.271,88.5l5.271,2.544v29.079a8.9,8.9,0,0,0-5.634,8.179,9.023,9.023,0,0,0,5.452,8.179l-8.179,25.99h22.9L16.9,136.485a8.806,8.806,0,0,0-.182-16.357V94.138l9.633,4.725v37.8A2.932,2.932,0,0,0,26.9,138.3c.909,1.09,17.811,24.172,52.343,24.172S130.675,139.211,131.4,138.3a2.931,2.931,0,0,0,.545-1.636V99.045L153.393,88.5c4.544-2.181,5.271-5.271,5.271-6.906C158.482,79.962,157.937,76.872,153.393,74.691Zm-27.262,61.067c-2.908,3.635-18.538,21.082-46.89,21.082s-43.982-17.448-46.89-21.082v-34.35L69.972,119.4a24.51,24.51,0,0,0,10,2,22.131,22.131,0,0,0,10.178-2.181l35.986-17.629Zm24.717-52.343L129.039,94.138a2.088,2.088,0,0,0-2,1.09L87.6,114.312c-3.817,2-11.268,2-15.267,0L23.809,91.048l55.8-6.543a2.83,2.83,0,0,0-.545-5.634L14.358,86.5l-6.543-3.09a3.666,3.666,0,0,1-2-1.636c0-.182.363-.909,2-1.636l64.7-31.078a18.775,18.775,0,0,1,7.452-1.454A18.422,18.422,0,0,1,87.6,49.065l63.247,30.9c1.636.727,2,1.454,2,1.817A5,5,0,0,1,150.849,83.415Z" transform="translate(0 -41.75)"/></svg>