<svg xmlns="http://www.w3.org/2000/svg" width="248" height="43.405" viewBox="0 0 248 43.405"><defs><style>.a{fill:#5a5b5e;}.b,.c{fill:#77ab33;}.c{font-size:10px;font-family:Square721BT-RomanCondensed, Square721 Cn BT;}</style></defs><g transform="translate(-83.162 -58.878)"><g transform="translate(130.942 59.263)"><path class="a" d="M706.049,63.84a7.566,7.566,0,0,1,7.754,7.841h-2.816a4.818,4.818,0,0,0-4.938-5.025c-2.556,0-5.025,1.473-5.025,4.245v2.556c0,2.946,2.859,3.682,5.328,4.2,3.465.693,7.451,1.689,7.451,6.844v3.206c0,4.722-3.985,7.1-7.841,7.1a7.428,7.428,0,0,1-7.711-7.884h2.772a4.769,4.769,0,0,0,4.938,5.025c2.512,0,5.025-1.473,5.025-4.245V84.5c0-3.032-2.642-3.639-5.242-4.072-3.682-.736-7.451-1.559-7.494-6.974V70.9C698.251,66.223,702.064,63.84,706.049,63.84Z" transform="translate(-698.251 -63.84)"/><path class="a" d="M923.546,72.059c0-4.722,3.942-7.1,7.971-7.1,3.985,0,7.971,2.383,7.971,7.1V88.65c0,4.765-3.985,7.148-7.971,7.148-4.029,0-7.971-2.382-7.971-7.148Zm2.772,16.591c0,2.859,2.556,4.332,5.2,4.332,2.6,0,5.155-1.473,5.155-4.332V72.059c0-2.816-2.556-4.289-5.155-4.289-2.642,0-5.2,1.473-5.2,4.289Z" transform="translate(-906.045 -64.868)"/><path class="a" d="M1161.907,67.743h6.065a6.739,6.739,0,0,1,6.931,6.931v4.635c0,2.123-2.036,5.242-4.678,5.588,2.9.39,4.808,3.509,4.808,5.675V98.11h-2.816V90.572c0-2.426-2.816-4.245-5.068-4.245h-4.938V98.11h-2.773V70.256A2.377,2.377,0,0,1,1161.907,67.743Zm.3,2.816v-.173c-.043.087-.087.173-.217.173Zm0,0V83.511h4.938c2.253,0,4.938-1.819,4.938-4.2V74.674a4.086,4.086,0,0,0-4.115-4.115Z" transform="translate(-1123.613 -67.44)"/><path class="a" d="M1384.729,72.059c0-4.722,3.942-7.1,7.97-7.1,3.985,0,7.971,2.383,7.971,7.1V88.65c0,4.765-3.985,7.148-7.971,7.148-4.029,0-7.97-2.382-7.97-7.148ZM1387.5,88.65c0,2.859,2.556,4.332,5.2,4.332,2.6,0,5.155-1.473,5.155-4.332V72.059c0-2.816-2.556-4.289-5.155-4.289-2.642,0-5.2,1.473-5.2,4.289Z" transform="translate(-1331.404 -64.868)"/><path class="a" d="M1636.562,86.8a7.769,7.769,0,0,1-7.971,7.971c-4.072,0-7.971-2.383-7.971-7.191V71.031c0-4.808,3.855-7.191,7.927-7.191a7.8,7.8,0,0,1,8.014,7.971h-2.9a4.931,4.931,0,0,0-5.068-5.155c-2.642,0-5.155,1.516-5.155,4.375V87.579c.043,2.859,2.556,4.375,5.155,4.375a4.931,4.931,0,0,0,5.068-5.155Z" transform="translate(-1548.972 -63.84)"/><path class="a" d="M1841.383,83.853h-8.144c-1.473,5.675-2.209,8.4-2.729,10.656h-2.989l7.278-28.547a2.553,2.553,0,0,1,5.025-.043l7.408,28.591h-3.076Zm-3.942-16.938-3.552,14.165h6.8Z" transform="translate(-1739.8 -63.84)"/><path class="a" d="M2108.052,82.293c2.989.52,4.289,3.552,4.289,5.761v3.682a7.206,7.206,0,0,1-6.844,6.931h-6.758a2.278,2.278,0,0,1-2.426-2.513V70.77a2.286,2.286,0,0,1,2.426-2.469h6.195a6.988,6.988,0,0,1,6.931,6.974v1.559C2111.865,78.7,2110.911,81.687,2108.052,82.293Zm-8.967,13.559h-.26a.324.324,0,0,1,.26.3Zm0-24.735V80.95h6.324a3.864,3.864,0,0,0,3.639-4.115V75.275a4.151,4.151,0,0,0-4.115-4.159Zm10.44,20.62V88.054a4.2,4.2,0,0,0-4.115-4.245h-6.324V95.852h6.411A4.278,4.278,0,0,0,2109.525,91.737Z" transform="translate(-1987.712 -67.954)"/><path class="a" d="M2322.647,83.853H2314.5c-1.473,5.675-2.209,8.4-2.729,10.656h-2.989l7.277-28.547a2.553,2.553,0,0,1,5.025-.043L2328.5,94.51h-3.076ZM2318.7,66.916l-3.552,14.165h6.8Zm-.086-.39.086.39a.391.391,0,0,1,.043-.217Z" transform="translate(-2183.68 -63.84)"/><path class="a" d="M2584.039,86.8a7.769,7.769,0,0,1-7.971,7.971c-4.072,0-7.971-2.383-7.971-7.191V71.031c0-4.808,3.855-7.191,7.928-7.191a7.8,7.8,0,0,1,8.014,7.971h-2.9a4.931,4.931,0,0,0-5.068-5.155c-2.642,0-5.155,1.516-5.155,4.375V87.579c.043,2.859,2.556,4.375,5.155,4.375a4.931,4.931,0,0,0,5.068-5.155Z" transform="translate(-2422.849 -63.84)"/><path class="a" d="M2802.314,72.059c0-4.722,3.942-7.1,7.971-7.1,3.985,0,7.971,2.383,7.971,7.1V88.65c0,4.765-3.985,7.148-7.971,7.148-4.029,0-7.971-2.382-7.971-7.148Zm2.772,16.591c0,2.859,2.556,4.332,5.2,4.332,2.6,0,5.155-1.473,5.155-4.332V72.059c0-2.816-2.556-4.289-5.155-4.289-2.643,0-5.2,1.473-5.2,4.289Z" transform="translate(-2638.872 -64.868)"/><path class="a" d="M3053.841,74.508l.3-3.942-4.938,14.945A2.044,2.044,0,0,1,3047.3,86.9a2.176,2.176,0,0,1-1.863-1.256l-4.765-15.378.3,4.245V96.34H3038.2V68.27c-.043-2.946,3.9-2.9,4.505-.563,1.863,5.675,2.9,10.483,4.549,16.158,1.776-5.328,3.205-11.133,4.895-16.288.823-2.469,4.375-2.382,4.505.606V96.34h-2.772v-.173h-.043Z" transform="translate(-2856.436 -65.671)"/></g><g transform="translate(83.162 58.878)"><g transform="translate(0 0)"><path class="b" d="M354.31,177.963a7.454,7.454,0,0,1-6-3.371,3.615,3.615,0,0,1-.665-2.474,2.757,2.757,0,0,1,2.557-2.347,7.357,7.357,0,0,1,7,3.68,3.347,3.347,0,0,1,.392,2.376,2.73,2.73,0,0,1-2.377,2.044A3.86,3.86,0,0,1,354.31,177.963Z" transform="translate(-327.081 -161.115)"/><path class="a" d="M187.812,341.516a5.4,5.4,0,0,1-3.651-1.919,3.5,3.5,0,0,1,.936-5.2,5.372,5.372,0,0,1,6.637.784,3.581,3.581,0,0,1,.635,4.236A4.485,4.485,0,0,1,187.812,341.516Z" transform="translate(-175.602 -312.256)"/><path class="a" d="M86.862,160.422a5.978,5.978,0,0,1,4.234,1.7,2.07,2.07,0,0,1,.371,2.658,3.113,3.113,0,0,1-1.545,1.1,6.175,6.175,0,0,1-6.038-1.358,2.1,2.1,0,0,1-.08-3.1,3.934,3.934,0,0,1,2.078-.92A4.057,4.057,0,0,1,86.862,160.422Z" transform="translate(-83.162 -152.527)"/><path class="a" d="M430.369,402.825c-.1.01-.212.024-.318.024a2.629,2.629,0,0,1-.3-.024,4.3,4.3,0,0,1-3.65-3.7,2.769,2.769,0,0,1,1.653-3.076,3.06,3.06,0,0,1,2.624.225,4.2,4.2,0,0,1,2.4,3.869A2.64,2.64,0,0,1,430.369,402.825Z" transform="translate(-399.439 -369.67)"/><path class="a" d="M177.237,63.412a5.469,5.469,0,0,1-4.045-1.823,1.346,1.346,0,0,1-.159-1.8,2,2,0,0,1,1.5-.619,5.471,5.471,0,0,1,4.262,1.588,1.685,1.685,0,0,1,.586,1.486,1.225,1.225,0,0,1-.847.935A2.871,2.871,0,0,1,177.237,63.412Z" transform="translate(-165.798 -59.144)"/><path class="a" d="M564.036,331.691a2.229,2.229,0,0,1,.019.326,2.329,2.329,0,0,1-.019.288,1.478,1.478,0,0,1-1.846,1.276c-1.612-.247-3.419-2.175-3.174-4a1.4,1.4,0,0,1,1.287-1.226,3.6,3.6,0,0,1,3.188,1.9A3.228,3.228,0,0,1,564.036,331.691Z" transform="translate(-522.031 -307.422)"/><path class="a" d="M299.256,272.7A3.323,3.323,0,0,1,301.864,274a1.763,1.763,0,0,1-1.039,2.911,3.193,3.193,0,0,1-3.509-1.672,1.679,1.679,0,0,1,1.085-2.4A2.263,2.263,0,0,1,299.256,272.7Z" transform="translate(-280.516 -256.086)"/><path class="a" d="M237.386,191.684a3.462,3.462,0,0,1,2.71,1.2,1.418,1.418,0,0,1-.66,2.425,3.6,3.6,0,0,1-3.648-1.145,1.446,1.446,0,0,1-.269-1.586,1.725,1.725,0,0,1,1.452-.887A3.347,3.347,0,0,1,237.386,191.684Z" transform="translate(-223.556 -181.362)"/><path class="a" d="M408.472,312.567a2.936,2.936,0,0,1,2.711,1.946,1.624,1.624,0,0,1-1.7,2.231,3.035,3.035,0,0,1-2.59-1.973A1.566,1.566,0,0,1,408.472,312.567Z" transform="translate(-381.645 -292.857)"/><path class="a" d="M326.343,58.878A4.166,4.166,0,0,1,329.5,60.56a.959.959,0,0,1-.814,1.65,4.107,4.107,0,0,1-3.394-1.746.972.972,0,0,1-.154-1.131,1.065,1.065,0,0,1,1.015-.456Z" transform="translate(-306.228 -58.878)"/><path class="a" d="M562.258,220.578a3.525,3.525,0,0,1-3.029-2.738.926.926,0,0,1,1.1-1.082,3.627,3.627,0,0,1,2.964,2.516A.954.954,0,0,1,562.258,220.578Z" transform="translate(-522.247 -204.491)"/><path class="a" d="M281.544,128.31a3.415,3.415,0,0,1,2.643,1.249,1.086,1.086,0,0,1-.74,1.9,3.326,3.326,0,0,1-3.057-1.223,1.137,1.137,0,0,1-.259-1.26,1.3,1.3,0,0,1,1.149-.668A1.8,1.8,0,0,1,281.544,128.31Z" transform="translate(-264.742 -122.913)"/><path class="a" d="M489.914,283.045a1.086,1.086,0,0,1-1.055,1.154,2.812,2.812,0,0,1-2.75-2.413,1.105,1.105,0,0,1,1.079-1.213A2.792,2.792,0,0,1,489.914,283.045Z" transform="translate(-454.808 -263.345)"/><path class="a" d="M479.762,118.28a3.663,3.663,0,0,1-2.928-2.035.816.816,0,0,1,.9-1.2,3.441,3.441,0,0,1,2.871,1.89C481.022,117.723,480.65,118.286,479.762,118.28Z" transform="translate(-446.176 -110.681)"/><path class="a" d="M498.851,214.191a2.713,2.713,0,0,1,2.341,1.856.85.85,0,0,1-.822,1.1,2.642,2.642,0,0,1-2.478-2.011C497.824,214.58,498.221,214.19,498.851,214.191Z" transform="translate(-465.669 -202.126)"/><path class="a" d="M370.073,116.287a2.625,2.625,0,0,1-.3-.044,2.882,2.882,0,0,1-1.389-.733,1.8,1.8,0,0,1-.62-1.092c-.035-.561.489-.786.969-.795a2.9,2.9,0,0,1,1.766.58,2.1,2.1,0,0,1,.886,1.255C371.479,116.189,370.619,116.337,370.073,116.287Z" transform="translate(-345.656 -109.369)"/><path class="a" d="M451.891,146.825a2.585,2.585,0,0,1,2.056,1.447c.332.691-.009,1.232-.848,1.171a2.6,2.6,0,0,1-2.076-1.287.9.9,0,0,1-.1-.968C451.106,146.874,451.417,146.82,451.891,146.825Z" transform="translate(-422.265 -139.993)"/></g></g><text class="c" transform="translate(217.803 100.283)"><tspan x="0" y="0">DESENVOLVIMENTO WEB</tspan></text></g></svg>