<svg xmlns="http://www.w3.org/2000/svg" width="831.861" height="525.699" viewBox="0 0 831.861 525.699"><defs><style>.a{fill:#0d5775;stroke:#fff;stroke-miterlimit:10;stroke-width:2px;}</style></defs><path class="a" d="M984.4,481.893l-20.362-20.362-30.7,20.362H892.514L872.05,502.358l-51.059,20.465V481.893l-20.464-20.362L790.4,420.7l20.362-51.161L759.7,379.776l-10.232-20.362-10.232-61.291-10.13-51.059-40.929-10.232-20.362,20.362-81.756-10.13-10.232,30.594-30.594-30.594L473.71,236.832,453.246,226.6,384.69,243.995l-2.865,23.432-30.7,20.464L310.3,359.414l-30.7,61.291L238.779,451.3,187.72,481.893l132.814,10.232h61.291l30.594,20.464h81.756l30.594,30.594v61.291l30.7,40.929V676h71.421l-10.13,40.827,30.594-10.13L658.4,749.056l50.24-62.826,91.885-71.523h40.929l10.13-20.362,51.161,10.13,10.13-30.594,51.161-20.464L984.4,522.822h20.567l10.13-40.929Z" transform="translate(-184.513 -225.539)"/></svg>