<svg xmlns="http://www.w3.org/2000/svg" width="45px" height="45px" viewBox="0 0 45.88 41.4"><defs><style>.a{fill:#f8f8f8;}</style></defs><g transform="translate(0 -25)"><path class="a" d="M43.192,25H2.688A2.692,2.692,0,0,0,0,27.688v26.7A2.692,2.692,0,0,0,2.688,57.08h40.5a2.692,2.692,0,0,0,2.688-2.688v-26.7A2.692,2.692,0,0,0,43.192,25Z"/><path class="a" d="M111.019,416.943h-7.258V413H89.6v3.943H82.344a1.344,1.344,0,0,0,0,2.688h28.675a1.344,1.344,0,1,0,0-2.688Z" transform="translate(-73.742 -353.231)"/></g></svg>
