<svg xmlns="http://www.w3.org/2000/svg" width="45px" height="45px" viewBox="0 0 51.446 39.304"><defs><style>.a{fill:#f8f8f8;}</style></defs><g transform="translate(0 -35.048)"><g transform="translate(0 35.048)"><g transform="translate(0 0)"><path class="a" d="M36.669,35.049h0a1.814,1.814,0,0,0-1.29.534,1.833,1.833,0,0,0-.542,1.307v27.6a1.847,1.847,0,0,0,1.843,1.84c4.285.01,11.464.9,16.417,6.086V43.532a1.764,1.764,0,0,0-.253-.932C48.775,36.054,40.964,35.059,36.669,35.049Z" transform="translate(-28.799 -35.049)"/><path class="a" d="M175.011,64.494V36.889a1.837,1.837,0,0,0-1.831-1.841h0c-4.295.01-12.106,1-16.171,7.551a1.764,1.764,0,0,0-.253.932V72.421c4.953-5.183,12.132-6.076,16.417-6.086A1.847,1.847,0,0,0,175.011,64.494Z" transform="translate(-129.599 -35.048)"/><path class="a" d="M191.383,71.8h-1.335v23.08a4.71,4.71,0,0,1-4.694,4.7c-3.635.009-9.628.719-13.872,4.736,7.341-1.8,15.079-.629,19.489.376a1.841,1.841,0,0,0,2.253-1.794V73.642A1.843,1.843,0,0,0,191.383,71.8Z" transform="translate(-141.778 -65.435)"/><path class="a" d="M3.175,94.881V71.8H1.841A1.843,1.843,0,0,0,0,73.642V102.9a1.841,1.841,0,0,0,2.253,1.794c4.41-1.005,12.149-2.173,19.489-.376C17.5,100.3,11.5,99.588,7.87,99.579A4.71,4.71,0,0,1,3.175,94.881Z" transform="translate(0 -65.435)"/></g></g></g></svg>
